<svg width="21" height="24" viewBox="0 0 21 24" fill="none" xmlns="http://www.w3.org/2000/svg">
<path d="M16.4114 3.48129C16.1351 3.24732 15.7847 3.11856 15.4251 3.11856H11.4816C11.0865 3.11856 10.7377 2.84847 10.6327 2.46061L10.1095 0.519759C10.0277 0.213556 9.75143 0 9.43966 0H5.57798C5.21836 0 4.868 0.128762 4.59172 0.362732L0.555638 3.78121C0.203735 4.07956 0 4.51923 0 4.98717V15.8927C0 16.3591 0.202191 16.7987 0.555638 17.0987L4.59172 20.5187C4.868 20.7527 5.21836 20.8814 5.57798 20.8814H9.62178C9.95825 20.8814 10.2546 21.1123 10.3441 21.442L10.8766 23.4221C10.9677 23.7613 11.2748 24 11.6205 24H15.422C15.7816 24 16.132 23.8712 16.4083 23.6373L20.4444 20.2188C20.7978 19.9204 21 19.4808 21 19.0128V8.1073C21 7.64093 20.7978 7.20126 20.4444 6.90133L16.4083 3.48129H16.4114ZM17.8483 20.9144C17.8483 21.442 17.4269 21.8707 16.9068 21.8707H11.4801C11.085 21.8707 10.7361 21.6006 10.6312 21.2128L10.108 19.2719C10.0262 18.9657 9.74989 18.7522 9.43812 18.7522H4.09474C3.57614 18.7522 3.15324 18.3219 3.15324 17.7943V3.08401C3.15324 2.5564 3.5746 2.12614 4.09474 2.12614H9.43349C9.88108 2.12614 10.2762 2.43235 10.3935 2.87202L10.8766 4.66841C10.9677 5.00759 11.2748 5.24627 11.6205 5.24627H16.8142C17.2834 5.24627 17.6909 5.57446 17.8082 6.02826H17.8344L17.8468 6.17744V20.9144H17.8483Z" fill="currentColor"/>
</svg>
