<svg width="24" height="21" viewBox="0 0 24 21" fill="none" xmlns="http://www.w3.org/2000/svg">
<path fill-rule="evenodd" clip-rule="evenodd" d="M21.514 0.140266C21.8091 0.0160679 22.1321 -0.026767 22.4493 0.0162187C22.7666 0.0592044 23.0665 0.18644 23.3179 0.384681C23.5693 0.582923 23.763 0.844923 23.8788 1.14341C23.9946 1.4419 24.0282 1.76597 23.9762 2.08188L21.268 18.5092C21.0053 20.0938 19.2667 21.0025 17.8135 20.2132C16.5979 19.5528 14.7924 18.5355 13.1684 17.4739C12.3564 16.9425 9.86912 15.2409 10.1748 14.0301C10.4375 12.9948 14.6169 9.10441 17.0051 6.79143C17.9424 5.88272 17.515 5.3585 16.408 6.19438C13.6592 8.26973 9.2458 11.4258 7.78661 12.3142C6.49937 13.0975 5.82828 13.2312 5.02584 13.0975C3.56187 12.8539 2.20418 12.4766 1.09605 12.0168C-0.401352 11.3959 -0.328512 9.33726 1.09486 8.73782L21.514 0.140266Z" fill="currentColor"/>
</svg>
